<?xml version="1.0" encoding="UTF-8"?>
<svg id="Layer_2" data-name="Layer 2" xmlns="http://www.w3.org/2000/svg" width="5314.56" height="4586.4" viewBox="0 0 5314.56 4586.4">
  <rect id="_222" data-name="222" x="2285.26" y="1244.1" width="62.35" height="69.01" fill="#fff"/>
  <rect id="_221" data-name="221" x="2285.26" y="1313.11" width="62.35" height="69.24" fill="#fff"/>
  <rect id="_225" data-name="225" x="2222.91" y="1243.77" width="62.35" height="69.01" fill="#fff"/>
  <rect id="_226" data-name="226" x="2222.91" y="1312.78" width="62.35" height="69.24" fill="#fff"/>
  <rect id="_200" data-name="200" x="2402.06" y="1174.04" width="62.35" height="69.18" fill="#fff"/>
  <rect id="_201" data-name="201" x="2402.06" y="1243.56" width="62.35" height="69.18" fill="#fff"/>
  <rect id="_202" data-name="202" x="2402.06" y="1312.74" width="62.35" height="69.41" fill="#fff"/>
  <rect id="_203" data-name="203" x="2402.06" y="1382.15" width="62.35" height="69.41" fill="#fff"/>
  <rect id="_204" data-name="204" x="2402.06" y="1451.55" width="62.35" height="69.41" fill="#fff"/>
  <rect id="_205" data-name="205" x="2402.06" y="1520.96" width="62.35" height="69.18" fill="#fff"/>
  <rect id="_206" data-name="206" x="2402.06" y="1590.48" width="62.35" height="69.18" fill="#fff"/>
  <rect id="_207" data-name="207" x="2402.06" y="1659.66" width="62.35" height="69.41" fill="#fff"/>
  <rect id="_208" data-name="208" x="2402.06" y="1729.07" width="62.35" height="69.41" fill="#fff"/>
  <rect id="_209" data-name="209" x="2402.06" y="1798.48" width="62.35" height="69.41" fill="#fff"/>
  <rect id="_210" data-name="210" x="2402.06" y="1867.89" width="62.35" height="69.41" fill="#fff"/>
  <rect id="_211" data-name="211" x="2402.06" y="1937.3" width="62.35" height="69.41" fill="#fff"/>
  <rect id="_454" data-name="454" x="2402.06" y="2742.66" width="62.35" height="69.41" fill="#fff"/>
  <rect id="_455" data-name="455" x="2402.06" y="2812.07" width="62.35" height="69.41" fill="#fff"/>
  <rect id="_456" data-name="456" x="2402.06" y="2881.48" width="62.35" height="69.18" fill="#fff"/>
  <rect id="_457" data-name="457" x="2402.06" y="2950.99" width="62.35" height="69.18" fill="#fff"/>
  <rect id="_458" data-name="458" x="2402.06" y="3020.17" width="62.35" height="69.41" fill="#fff"/>
  <rect id="_459" data-name="459" x="2402.06" y="3089.58" width="62.35" height="69.41" fill="#fff"/>
  <rect id="_460" data-name="460" x="2402.06" y="3158.99" width="62.35" height="69.41" fill="#fff"/>
  <rect id="_461" data-name="461" x="2402.06" y="3228.4" width="62.35" height="69.41" fill="#fff"/>
  <rect id="_462" data-name="462" x="2402.06" y="3297.81" width="62.35" height="69.41" fill="#fff"/>
  <rect id="_453" data-name="453" x="2402.06" y="2062.46" width="62.35" height="69.18" fill="#fff"/>
  <rect id="_452" data-name="452" x="2402.06" y="2131.98" width="62.35" height="69.18" fill="#fff"/>
  <rect id="_451" data-name="451" x="2402.06" y="2201.16" width="62.35" height="69.41" fill="#fff"/>
  <rect id="_450" data-name="450" x="2402.06" y="2270.57" width="62.35" height="69.41" fill="#fff"/>
  <rect id="_449" data-name="449" x="2402.06" y="2339.98" width="62.35" height="69.41" fill="#fff"/>
  <rect id="_448" data-name="448" x="2402.06" y="2409.39" width="62.35" height="69.41" fill="#fff"/>
  <rect id="_447" data-name="447" x="2402.06" y="2478.8" width="62.35" height="69.41" fill="#fff"/>
  <rect id="_470" data-name="470" x="2285.42" y="2812.21" width="62.35" height="69.41" fill="#fff"/>
  <rect id="_469" data-name="469" x="2285.42" y="2881.62" width="62.35" height="69.18" fill="#fff"/>
  <rect id="_468" data-name="468" x="2285.42" y="2951.14" width="62.35" height="69.18" fill="#fff"/>
  <rect id="_467" data-name="467" x="2285.42" y="3020.32" width="62.35" height="69.41" fill="#fff"/>
  <rect id="_466" data-name="466" x="2285.42" y="3089.72" width="62.35" height="69.41" fill="#fff"/>
  <rect id="_465" data-name="465" x="2285.42" y="3159.13" width="62.35" height="69.41" fill="#fff"/>
  <rect id="_464" data-name="464" x="2285.42" y="3228.54" width="62.35" height="69.41" fill="#fff"/>
  <rect id="_463" data-name="463" x="2285.42" y="3297.95" width="62.35" height="69.41" fill="#fff"/>
  <rect id="_473" data-name="473" x="2223.06" y="2812.27" width="62.35" height="69.35" fill="#fff"/>
  <rect id="_474" data-name="474" x="2223.06" y="2881.68" width="62.35" height="69.18" fill="#fff"/>
  <rect id="_475" data-name="475" x="2223.06" y="2951.2" width="62.35" height="69.18" fill="#fff"/>
  <rect id="_476" data-name="476" x="2223.06" y="3020.38" width="62.35" height="69.41" fill="#fff"/>
  <rect id="_477" data-name="477" x="2223.06" y="3089.79" width="62.35" height="69.41" fill="#fff"/>
  <rect id="_478" data-name="478" x="2223.06" y="3159.2" width="62.35" height="69.41" fill="#fff"/>
  <rect id="_479" data-name="479" x="2223.06" y="3228.6" width="62.35" height="69.41" fill="#fff"/>
  <rect id="_480" data-name="480" x="2223.06" y="3298.01" width="62.35" height="69.41" fill="#fff"/>
  <rect id="_488" data-name="488" x="2105.54" y="2812.18" width="62.35" height="69.41" fill="#fff"/>
  <rect id="_487" data-name="487" x="2105.54" y="2881.59" width="62.35" height="69.18" fill="#fff"/>
  <rect id="_486" data-name="486" x="2105.54" y="2951.11" width="62.35" height="69.18" fill="#fff"/>
  <rect id="_485" data-name="485" x="2105.54" y="3020.29" width="62.35" height="69.41" fill="#fff"/>
  <rect id="_484" data-name="484" x="2105.54" y="3089.69" width="62.35" height="69.41" fill="#fff"/>
  <rect id="_483" data-name="483" x="2105.54" y="3159.1" width="62.35" height="69.41" fill="#fff"/>
  <rect id="_482" data-name="482" x="2105.54" y="3228.51" width="62.35" height="69.41" fill="#fff"/>
  <rect id="_481" data-name="481" x="2105.54" y="3297.92" width="62.35" height="69.41" fill="#fff"/>
  <rect id="_490" data-name="490" x="2043.19" y="2812.24" width="62.35" height="69.35" fill="#fff"/>
  <rect id="_491" data-name="491" x="2043.19" y="2881.65" width="62.35" height="69.18" fill="#fff"/>
  <rect id="_492" data-name="492" x="2043.19" y="2951.17" width="62.35" height="69.18" fill="#fff"/>
  <rect id="_493" data-name="493" x="2043.19" y="3020.35" width="62.35" height="69.41" fill="#fff"/>
  <rect id="_494" data-name="494" x="2043.19" y="3089.76" width="62.35" height="69.41" fill="#fff"/>
  <rect id="_495" data-name="495" x="2043.19" y="3159.16" width="62.35" height="69.41" fill="#fff"/>
  <rect id="_496" data-name="496" x="2043.19" y="3228.57" width="62.35" height="69.41" fill="#fff"/>
  <rect id="_497" data-name="497" x="2043.19" y="3297.98" width="62.35" height="69.41" fill="#fff"/>
  <rect id="_579" data-name="579" x="2105.54" y="3408.73" width="62.35" height="69.18" fill="#fff"/>
  <rect id="_578" data-name="578" x="2105.54" y="3478.25" width="62.35" height="69.18" fill="#fff"/>
  <rect id="_577" data-name="577" x="2105.54" y="3547.43" width="62.35" height="69.41" fill="#fff"/>
  <rect id="_576" data-name="576" x="2105.54" y="3616.84" width="62.35" height="69.41" fill="#fff"/>
  <rect id="_575" data-name="575" x="2105.54" y="3686.25" width="62.35" height="69.41" fill="#fff"/>
  <rect id="_574" data-name="574" x="2105.54" y="3755.66" width="62.35" height="69.41" fill="#fff"/>
  <rect id="_573" data-name="573" x="2105.54" y="3825.06" width="62.35" height="69.41" fill="#fff"/>
  <rect id="_564" data-name="564" x="2043.19" y="3408.79" width="62.35" height="69.18" fill="#fff"/>
  <rect id="_565" data-name="565" x="2043.19" y="3478.31" width="62.35" height="69.18" fill="#fff"/>
  <rect id="_566" data-name="566" x="2043.19" y="3547.49" width="62.35" height="69.41" fill="#fff"/>
  <rect id="_567" data-name="567" x="2043.19" y="3616.9" width="62.35" height="69.41" fill="#fff"/>
  <rect id="_568" data-name="568" x="2043.19" y="3686.31" width="62.35" height="69.41" fill="#fff"/>
  <rect id="_569" data-name="569" x="2043.19" y="3755.72" width="62.35" height="69.41" fill="#fff"/>
  <rect id="_570" data-name="570" x="2043.19" y="3825.13" width="62.35" height="69.41" fill="#fff"/>
  <rect id="_597" data-name="597" x="2285.42" y="3408.64" width="62.35" height="69.18" fill="#fff"/>
  <rect id="_596" data-name="596" x="2285.42" y="3478.16" width="62.35" height="69.18" fill="#fff"/>
  <rect id="_595" data-name="595" x="2285.42" y="3547.34" width="62.35" height="69.41" fill="#fff"/>
  <rect id="_594" data-name="594" x="2285.42" y="3616.75" width="62.35" height="69.41" fill="#fff"/>
  <rect id="_593" data-name="593" x="2285.42" y="3686.15" width="62.35" height="69.41" fill="#fff"/>
  <rect id="_592" data-name="592" x="2285.42" y="3756.31" width="62.35" height="68.72" fill="#fff"/>
  <rect id="_591" data-name="591" x="2285.42" y="3825.49" width="62.35" height="68.89" fill="#fff"/>
  <rect id="_580" data-name="580" x="2223.06" y="3408.7" width="62.35" height="69.18" fill="#fff"/>
  <rect id="_581" data-name="581" x="2223.06" y="3478.22" width="62.35" height="69.18" fill="#fff"/>
  <rect id="_582" data-name="582" x="2223.06" y="3547.4" width="62.35" height="69.41" fill="#fff"/>
  <rect id="_583" data-name="583" x="2223.06" y="3616.81" width="62.35" height="69.41" fill="#fff"/>
  <rect id="_584" data-name="584" x="2223.06" y="3686.22" width="62.35" height="69.41" fill="#fff"/>
  <rect id="_585" data-name="585" x="2223.06" y="3756.31" width="62.35" height="68.72" fill="#fff"/>
  <rect id="_590" data-name="590" x="2285.42" y="3895.04" width="62.35" height="68.72" fill="#fff"/>
  <rect id="_589" data-name="589" x="2285.42" y="3964.23" width="62.35" height="68.89" fill="#fff"/>
  <rect id="_587" data-name="587" x="2223.06" y="3895.04" width="62.35" height="68.72" fill="#fff"/>
  <rect id="_586" data-name="586" x="2223.06" y="3825.64" width="62.35" height="68.81" fill="#fff"/>
  <rect id="_613" data-name="613" x="2464.84" y="3547.26" width="62.35" height="69.41" fill="#fff"/>
  <rect id="_612" data-name="612" x="2464.84" y="3616.67" width="62.35" height="69.41" fill="#fff"/>
  <rect id="_611" data-name="611" x="2464.84" y="3686.08" width="62.35" height="69.41" fill="#fff"/>
  <rect id="_610" data-name="610" x="2464.84" y="3756.23" width="62.35" height="68.72" fill="#fff"/>
  <rect id="_609" data-name="609" x="2464.84" y="3825.41" width="62.35" height="68.89" fill="#fff"/>
  <rect id="_598" data-name="598" x="2402.49" y="3408.62" width="62.35" height="69.18" fill="#fff"/>
  <rect id="_599" data-name="599" x="2402.49" y="3478.14" width="62.35" height="69.18" fill="#fff"/>
  <rect id="_600" data-name="600" x="2402.49" y="3547.32" width="62.35" height="69.41" fill="#fff"/>
  <rect id="_626" data-name="626" x="2630.87" y="3547.2" width="62.35" height="69.41" fill="#fff"/>
  <rect id="_616" data-name="616" x="2568.52" y="3547.26" width="62.35" height="69.41" fill="#fff"/>
  <rect id="_601" data-name="601" x="2402.49" y="3616.73" width="62.35" height="69.41" fill="#fff"/>
  <rect id="_602" data-name="602" x="2402.49" y="3686.14" width="62.35" height="69.41" fill="#fff"/>
  <rect id="_635" data-name="635" x="2796.96" y="3547.49" width="62.35" height="69.41" fill="#fff"/>
  <rect id="_634" data-name="634" x="2796.96" y="3616.9" width="62.35" height="69.41" fill="#fff"/>
  <rect id="_633" data-name="633" x="2796.96" y="3686.31" width="62.35" height="69.41" fill="#fff"/>
  <rect id="_629" data-name="629" x="2734.61" y="3547.55" width="62.35" height="69.41" fill="#fff"/>
  <rect id="_640" data-name="640" x="2963.15" y="3547.46" width="62.35" height="69.41" fill="#fff"/>
  <rect id="_638" data-name="638" x="2900.8" y="3547.52" width="62.35" height="69.41" fill="#fff"/>
  <rect id="_630" data-name="630" x="2734.61" y="3616.96" width="62.35" height="69.41" fill="#fff"/>
  <rect id="_631" data-name="631" x="2734.61" y="3686.37" width="62.35" height="69.41" fill="#fff"/>
  <rect id="_603" data-name="603" x="2402.49" y="3756.23" width="62.35" height="68.72" fill="#fff"/>
  <rect id="_608" data-name="608" x="2464.84" y="3894.96" width="62.35" height="68.72" fill="#fff"/>
  <rect id="_605" data-name="605" x="2402.49" y="3894.96" width="62.35" height="68.72" fill="#fff"/>
  <rect id="_604" data-name="604" x="2402.49" y="3825.56" width="62.35" height="68.81" fill="#fff"/>
  <rect id="_623" data-name="623" x="2630.87" y="3756.57" width="62.35" height="68.72" fill="#fff"/>
  <rect id="_622" data-name="622" x="2630.87" y="3825.75" width="62.35" height="68.89" fill="#fff"/>
  <rect id="_619" data-name="619" x="2568.52" y="3756.57" width="62.35" height="68.72" fill="#fff"/>
  <rect id="_620" data-name="620" x="2568.52" y="3825.89" width="62.35" height="68.81" fill="#fff"/>
  <rect id="_502" data-name="502" x="1925.65" y="3020.35" width="62.35" height="69.41" fill="#fff"/>
  <rect id="_501" data-name="501" x="1925.65" y="3089.76" width="62.35" height="69.41" fill="#fff"/>
  <rect id="_500" data-name="500" x="1925.65" y="3159.16" width="62.35" height="69.41" fill="#fff"/>
  <rect id="_499" data-name="499" x="1925.65" y="3228.57" width="62.35" height="69.41" fill="#fff"/>
  <rect id="_498" data-name="498" x="1925.65" y="3297.98" width="62.35" height="69.41" fill="#fff"/>
  <rect id="_505" data-name="505" x="1863.3" y="3020.41" width="62.35" height="69.41" fill="#fff"/>
  <rect id="_506" data-name="506" x="1863.3" y="3089.82" width="62.35" height="69.41" fill="#fff"/>
  <rect id="_507" data-name="507" x="1863.3" y="3159.23" width="62.35" height="69.41" fill="#fff"/>
  <rect id="_508" data-name="508" x="1863.3" y="3228.63" width="62.35" height="69.41" fill="#fff"/>
  <rect id="_509" data-name="509" x="1863.3" y="3298.04" width="62.35" height="69.41" fill="#fff"/>
  <rect id="_511" data-name="511" x="1745.88" y="3228.57" width="62.35" height="69.41" fill="#fff"/>
  <rect id="_510" data-name="510" x="1745.88" y="3298.04" width="62.35" height="69.35" fill="#fff"/>
  <rect id="_526" data-name="526" x="1683.53" y="3228.63" width="62.35" height="69.41" fill="#fff"/>
  <rect id="_527" data-name="527" x="1683.53" y="3298.04" width="62.35" height="69.41" fill="#fff"/>
  <rect id="_553" data-name="553" x="1745.88" y="3408.87" width="62.35" height="69.41" fill="#fff"/>
  <rect id="_552" data-name="552" x="1745.88" y="3478.34" width="62.35" height="69.35" fill="#fff"/>
  <rect id="_544" data-name="544" x="1683.53" y="3408.93" width="62.35" height="69.41" fill="#fff"/>
  <rect id="_545" data-name="545" x="1683.53" y="3478.34" width="62.35" height="69.41" fill="#fff"/>
  <rect id="_563" data-name="563" x="1925.65" y="3408.79" width="62.35" height="68.96" fill="#fff"/>
  <rect id="_562" data-name="562" x="1925.65" y="3477.81" width="62.35" height="69.35" fill="#fff"/>
  <rect id="_554" data-name="554" x="1863.3" y="3408.73" width="62.35" height="69.08" fill="#fff"/>
  <rect id="_555" data-name="555" x="1863.3" y="3477.81" width="62.35" height="69.41" fill="#fff"/>
  <rect id="_220" data-name="220" x="2285.14" y="1382.29" width="62.35" height="69.41" fill="#fff"/>
  <rect id="_219" data-name="219" x="2285.14" y="1451.7" width="62.35" height="69.41" fill="#fff"/>
  <rect id="_218" data-name="218" x="2285.14" y="1521.11" width="62.35" height="69.18" fill="#fff"/>
  <rect id="_217" data-name="217" x="2285.14" y="1590.63" width="62.35" height="69.18" fill="#fff"/>
  <rect id="_216" data-name="216" x="2285.14" y="1659.8" width="62.35" height="69.41" fill="#fff"/>
  <rect id="_215" data-name="215" x="2285.14" y="1729.21" width="62.35" height="69.41" fill="#fff"/>
  <rect id="_213" data-name="213" x="2285.14" y="1868.03" width="62.35" height="69.41" fill="#fff"/>
  <rect id="_212" data-name="212" x="2285.14" y="1937.44" width="62.35" height="70.08" fill="#fff"/>
  <rect id="_227" data-name="227" x="2222.79" y="1381.96" width="62.35" height="69.41" fill="#fff"/>
  <rect id="_228" data-name="228" x="2222.79" y="1451.36" width="62.35" height="69.41" fill="#fff"/>
  <rect id="_229" data-name="229" x="2222.79" y="1520.77" width="62.35" height="69.18" fill="#fff"/>
  <rect id="_230" data-name="230" x="2222.79" y="1590.29" width="62.35" height="69.18" fill="#fff"/>
  <rect id="_231" data-name="231" x="2222.79" y="1659.47" width="62.35" height="69.41" fill="#fff"/>
  <rect id="_232" data-name="232" x="2222.79" y="1728.88" width="62.35" height="69.41" fill="#fff"/>
  <rect id="_234" data-name="234" x="2222.79" y="1867.7" width="62.35" height="69.41" fill="#fff"/>
  <rect id="_235" data-name="235" x="2222.79" y="1937.11" width="62.35" height="70.08" fill="#fff"/>
  <rect id="_245" data-name="245" x="2105.59" y="1313.34" width="62.35" height="68.62" fill="#fff"/>
  <rect id="_244" data-name="244" x="2105.59" y="1382.48" width="62.35" height="68.88" fill="#fff"/>
  <rect id="_243" data-name="243" x="2105.59" y="1451.99" width="62.35" height="68.78" fill="#fff"/>
  <rect id="_242" data-name="242" x="2105.59" y="1521.49" width="62.35" height="68.47" fill="#fff"/>
  <rect id="_241" data-name="241" x="2105.59" y="1591.17" width="62.35" height="68.3" fill="#fff"/>
  <rect id="_240" data-name="240" x="2105.59" y="1660.61" width="62.35" height="68.26" fill="#fff"/>
  <rect id="_239" data-name="239" x="2105.59" y="1729.92" width="62.35" height="69.15" fill="#fff"/>
  <rect id="_237" data-name="237" x="2105.59" y="1869.11" width="62.35" height="68.73" fill="#fff"/>
  <rect id="_238" data-name="238" x="2105.59" y="1799.71" width="62.35" height="68.8" fill="#fff"/>
  <rect id="_236" data-name="236" x="2105.59" y="1938.41" width="62.35" height="68.77" fill="#fff"/>
  <rect id="_248" data-name="248" x="2043.24" y="1382.39" width="62.35" height="68.88" fill="#fff"/>
  <rect id="_249" data-name="249" x="2043.24" y="1451.91" width="62.35" height="68.78" fill="#fff"/>
  <rect id="_250" data-name="250" x="2043.24" y="1521.4" width="62.35" height="68.47" fill="#fff"/>
  <rect id="_251" data-name="251" x="2043.24" y="1591.09" width="62.35" height="68.3" fill="#fff"/>
  <rect id="_252" data-name="252" x="2043.24" y="1660.53" width="62.35" height="68.26" fill="#fff"/>
  <rect id="_253" data-name="253" x="2043.24" y="1729.83" width="62.35" height="69.24" fill="#fff"/>
  <rect id="_265" data-name="265" x="1926.11" y="1382.84" width="62.35" height="68.88" fill="#fff"/>
  <rect id="_264" data-name="264" x="1926.11" y="1452.35" width="62.35" height="68.78" fill="#fff"/>
  <rect id="_263" data-name="263" x="1926.11" y="1521.84" width="62.35" height="68.47" fill="#fff"/>
  <rect id="_262" data-name="262" x="1926.11" y="1591.53" width="62.35" height="68.3" fill="#fff"/>
  <rect id="_261" data-name="261" x="1926.11" y="1660.97" width="62.35" height="68.26" fill="#fff"/>
  <rect id="_268" data-name="268" x="1863.21" y="1452.35" width="62.36" height="68.72" fill="#fff"/>
  <rect id="_269" data-name="269" x="1863.76" y="1521.77" width="61.86" height="68.78" fill="#fff"/>
  <rect id="_270" data-name="270" x="1863.51" y="1591.53" width="62.35" height="68.3" fill="#fff"/>
  <rect id="_271" data-name="271" x="1863.76" y="1660.48" width="62.35" height="69.2" fill="#fff"/>
  <rect id="_260" data-name="260" x="1926.11" y="1730.27" width="62.35" height="69.24" fill="#fff"/>
  <rect id="_255" data-name="255" x="2043.24" y="1869.03" width="62.35" height="68.81" fill="#fff"/>
  <rect id="_254" data-name="254" x="2043.24" y="1799.62" width="62.35" height="68.8" fill="#fff"/>
  <rect id="_256" data-name="256" x="2043.24" y="1938.33" width="62.35" height="68.77" fill="#fff"/>
  <rect id="_440" data-name="440" x="2285.14" y="2062.61" width="62.35" height="69.18" fill="#fff"/>
  <rect id="_441" data-name="441" x="2285.14" y="2132.12" width="62.35" height="69.18" fill="#fff"/>
  <rect id="_442" data-name="442" x="2285.14" y="2201.3" width="62.35" height="69.41" fill="#fff"/>
  <rect id="_443" data-name="443" x="2285.14" y="2270.71" width="62.35" height="69.41" fill="#fff"/>
  <rect id="_444" data-name="444" x="2285.14" y="2340.12" width="62.35" height="69.41" fill="#fff"/>
  <rect id="_439" data-name="439" x="2222.79" y="2062.55" width="62.35" height="69.18" fill="#fff"/>
  <rect id="_438" data-name="438" x="2222.79" y="2132.06" width="62.35" height="69.18" fill="#fff"/>
  <rect id="_437" data-name="437" x="2222.79" y="2201.24" width="62.35" height="69.41" fill="#fff"/>
  <rect id="_436" data-name="436" x="2222.79" y="2270.65" width="62.35" height="69.41" fill="#fff"/>
  <rect id="_427" data-name="427" x="2105.59" y="2132.07" width="62.35" height="69.18" fill="#fff"/>
  <rect id="_426" data-name="426" x="2105.59" y="2062.55" width="62.35" height="69.18" fill="#fff"/>
  <rect id="_425" data-name="425" x="2043.24" y="2062.55" width="62.35" height="69.18" fill="#fff"/>
  <rect id="_424" data-name="424" x="2043.24" y="2132.07" width="62.35" height="69.18" fill="#fff"/>
  <rect id="_332" data-name="332" x="1174.2" y="1521.4" width="62.13" height="69.3" fill="#fff"/>
  <rect id="_331" data-name="331" x="1174.15" y="1591.32" width="62.18" height="68.71" fill="#fff"/>
  <rect id="_330" data-name="330" x="1173.91" y="1660.66" width="62.43" height="68.72" fill="#fff"/>
  <rect id="_329" data-name="329" x="1174" y="1730.02" width="62.33" height="69.03" fill="#fff"/>
  <rect id="_327" data-name="327" x="1174.07" y="1869.36" width="62.27" height="68.76" fill="#fff"/>
  <rect id="_328" data-name="328" x="1174.08" y="1799.51" width="62.26" height="68.97" fill="#fff"/>
  <rect id="_326" data-name="326" x="1174.07" y="1938.59" width="62.35" height="68.93" fill="#fff"/>
  <rect id="_334" data-name="334" x="1111.71" y="1869.07" width="61.79" height="68.9" fill="#fff"/>
  <rect id="_333" data-name="333" x="1111.72" y="1799.73" width="61.95" height="68.97" fill="#fff"/>
  <rect id="_335" data-name="335" x="1111.71" y="1938.39" width="61.79" height="69.35" fill="#fff"/>
  <rect id="_353" data-name="353" x="1173.86" y="2201.55" width="62.43" height="68.95" fill="#fff"/>
  <rect id="_354" data-name="354" x="1173.96" y="2271.16" width="62.33" height="68.75" fill="#fff"/>
  <rect id="_356" data-name="356" x="1174.27" y="2410.19" width="62.02" height="68.78" fill="#fff"/>
  <rect id="_355" data-name="355" x="1174.03" y="2340.71" width="62.26" height="68.73" fill="#fff"/>
  <rect id="_357" data-name="357" x="1174.02" y="2479.59" width="62.35" height="68.86" fill="#fff"/>
  <rect id="_351" data-name="351" x="1174.09" y="2062.55" width="62.15" height="68.93" fill="#fff"/>
  <rect id="_352" data-name="352" x="1173.99" y="2132.26" width="62.25" height="68.78" fill="#fff"/>
  <rect id="_348" data-name="348" x="1111.36" y="2201.58" width="62.43" height="68.95" fill="#fff"/>
  <rect id="_347" data-name="347" x="1111.45" y="2271.2" width="62.33" height="68.75" fill="#fff"/>
  <rect id="_345" data-name="345" x="1111.76" y="2410.23" width="62.02" height="68.78" fill="#fff"/>
  <rect id="_346" data-name="346" x="1111.52" y="2340.75" width="62.26" height="68.73" fill="#fff"/>
  <rect id="_344" data-name="344" x="1111.51" y="2479.63" width="62.35" height="68.86" fill="#fff"/>
  <rect id="_350" data-name="350" x="1111.59" y="2062.59" width="62.15" height="68.93" fill="#fff"/>
  <rect id="_349" data-name="349" x="1111.48" y="2132.3" width="62.25" height="68.78" fill="#fff"/>
  <rect id="_338" data-name="338" x="1008.05" y="2271.12" width="62.43" height="68.95" fill="#fff"/>
  <rect id="_339" data-name="339" x="1008.15" y="2340.74" width="62.33" height="68.75" fill="#fff"/>
  <rect id="_341" data-name="341" x="1008.46" y="2479.77" width="62.02" height="68.78" fill="#fff"/>
  <rect id="_340" data-name="340" x="1008.22" y="2410.29" width="62.26" height="68.73" fill="#fff"/>
  <rect id="_342" data-name="342" x="1008.21" y="2549.16" width="62.35" height="68.86" fill="#fff"/>
  <rect id="_336" data-name="336" x="1008.28" y="2132.13" width="62.15" height="68.93" fill="#fff"/>
  <rect id="_337" data-name="337" x="1008.18" y="2201.84" width="62.25" height="68.78" fill="#fff"/>
  <rect id="_428" data-name="428" x="2105.59" y="2201.25" width="62.35" height="69.41" fill="#fff"/>
  <rect id="_429" data-name="429" x="2105.59" y="2270.66" width="62.35" height="69.41" fill="#fff"/>
  <rect id="_435" data-name="435" x="2222.79" y="2340.06" width="62.35" height="69.41" fill="#fff"/>
  <rect id="_433" data-name="433" x="2222.79" y="2478.94" width="62.35" height="69.41" fill="#fff"/>
  <rect id="_432" data-name="432" x="2106.41" y="2479.5" width="61.53" height="69.41" fill="#fff"/>
  <rect id="_446" data-name="446" x="2285.14" y="2479.5" width="62.35" height="68.91" fill="#fff"/>
</svg>