<?xml version="1.0" encoding="UTF-8"?>
<svg id="Layer_2" data-name="Layer 2" xmlns="http://www.w3.org/2000/svg" width="5304" height="4571.04" viewBox="0 0 5304 4571.04">
  <rect id="_4" data-name="4" x="3121.24" y="1896.98" width="83.17" height="103.96" fill="#fff" stroke="#000" stroke-miterlimit="10"/>
  <rect id="_5" data-name="5" x="3121.24" y="1793.02" width="83.17" height="103.96" fill="#fff" stroke="#000" stroke-miterlimit="10"/>
  <rect id="_6" data-name="6" x="3121.24" y="1689.06" width="83.17" height="103.96" fill="#fff" stroke="#000" stroke-miterlimit="10"/>
  <rect id="_7" data-name="7" x="3121.24" y="1585.1" width="83.17" height="103.96" fill="#fff" stroke="#000" stroke-miterlimit="10"/>
  <rect id="_8" data-name="8" x="3121.24" y="1481.14" width="83.17" height="103.96" fill="#fff" stroke="#000" stroke-miterlimit="10"/>
  <rect id="_9" data-name="9" x="3121.24" y="1377.18" width="83.17" height="103.96" fill="#fff" stroke="#000" stroke-miterlimit="10"/>
  <rect id="_15" data-name="15" x="3038.07" y="1896.98" width="83.17" height="103.96" fill="#fff" stroke="#000" stroke-miterlimit="10"/>
  <rect id="_14" data-name="14" x="3038.07" y="1793.02" width="83.17" height="103.96" fill="#fff" stroke="#000" stroke-miterlimit="10"/>
  <rect id="_13" data-name="13" x="3038.07" y="1689.06" width="83.17" height="103.96" fill="#fff" stroke="#000" stroke-miterlimit="10"/>
  <rect id="_12" data-name="12" x="3038.07" y="1585.1" width="83.17" height="103.96" fill="#fff" stroke="#000" stroke-miterlimit="10"/>
  <rect id="_11" data-name="11" x="3038.07" y="1481.14" width="83.17" height="103.96" fill="#fff" stroke="#000" stroke-miterlimit="10"/>
  <rect id="_10" data-name="10" x="3038.07" y="1377.18" width="83.17" height="103.96" fill="#fff" stroke="#000" stroke-miterlimit="10"/>
  <rect id="_16" data-name="16" x="2900.22" y="1896.98" width="83.17" height="103.96" fill="#fff" stroke="#000" stroke-miterlimit="10"/>
  <rect id="_17" data-name="17" x="2900.22" y="1793.02" width="83.17" height="103.96" fill="#fff" stroke="#000" stroke-miterlimit="10"/>
  <rect id="_18" data-name="18" x="2900.22" y="1689.06" width="83.17" height="103.96" fill="#fff" stroke="#000" stroke-miterlimit="10"/>
  <rect id="_19" data-name="19" x="2900.22" y="1585.1" width="83.17" height="103.96" fill="#fff" stroke="#000" stroke-miterlimit="10"/>
  <rect id="_20" data-name="20" x="2900.22" y="1481.14" width="83.17" height="103.96" fill="#fff" stroke="#000" stroke-miterlimit="10"/>
  <rect id="_21" data-name="21" x="2900.22" y="1377.18" width="83.17" height="103.96" fill="#fff" stroke="#000" stroke-miterlimit="10"/>
  <rect id="_28" data-name="28" x="2817.05" y="1896.98" width="83.17" height="103.96" fill="#fff" stroke="#000" stroke-miterlimit="10"/>
  <rect id="_27" data-name="27" x="2817.05" y="1793.02" width="83.17" height="103.96" fill="#fff" stroke="#000" stroke-miterlimit="10"/>
  <rect id="_26" data-name="26" x="2817.05" y="1689.06" width="83.17" height="103.96" fill="#fff" stroke="#000" stroke-miterlimit="10"/>
  <rect id="_25" data-name="25" x="2817.05" y="1585.1" width="83.17" height="103.96" fill="#fff" stroke="#000" stroke-miterlimit="10"/>
  <rect id="_24" data-name="24" x="2817.05" y="1481.14" width="83.17" height="103.96" fill="#fff" stroke="#000" stroke-miterlimit="10"/>
  <rect id="_23" data-name="23" x="2817.05" y="1377.18" width="83.17" height="103.96" fill="#fff" stroke="#000" stroke-miterlimit="10"/>
  <rect id="_78" data-name="78" x="2900.22" y="2576.05" width="83.17" height="103.96" fill="#fff" stroke="#000" stroke-miterlimit="10"/>
  <rect id="_77" data-name="77" x="2900.22" y="2472.09" width="83.17" height="103.96" fill="#fff" stroke="#000" stroke-miterlimit="10"/>
  <rect id="_76" data-name="76" x="2900.22" y="2368.13" width="83.17" height="103.96" fill="#fff" stroke="#000" stroke-miterlimit="10"/>
  <rect id="_75" data-name="75" x="2900.22" y="2264.16" width="83.17" height="103.96" fill="#fff" stroke="#000" stroke-miterlimit="10"/>
  <rect id="_74" data-name="74" x="2900.22" y="2160.2" width="83.17" height="103.96" fill="#fff" stroke="#000" stroke-miterlimit="10"/>
  <rect id="_73" data-name="73" x="2900.22" y="2056.24" width="83.17" height="103.96" fill="#fff" stroke="#000" stroke-miterlimit="10"/>
  <rect id="_67" data-name="67" x="2817.05" y="2576.05" width="83.17" height="103.96" fill="#fff" stroke="#000" stroke-miterlimit="10"/>
  <rect id="_68" data-name="68" x="2817.05" y="2472.09" width="83.17" height="103.96" fill="#fff" stroke="#000" stroke-miterlimit="10"/>
  <rect id="_69" data-name="69" x="2817.05" y="2368.13" width="83.17" height="103.96" fill="#fff" stroke="#000" stroke-miterlimit="10"/>
  <rect id="_70" data-name="70" x="2817.05" y="2264.16" width="83.17" height="103.96" fill="#fff" stroke="#000" stroke-miterlimit="10"/>
  <rect id="_71" data-name="71" x="2817.05" y="2160.2" width="83.17" height="103.96" fill="#fff" stroke="#000" stroke-miterlimit="10"/>
  <rect id="_72" data-name="72" x="2817.05" y="2056.24" width="83.17" height="103.96" fill="#fff" stroke="#000" stroke-miterlimit="10"/>
  <rect id="_163" data-name="163" x="2678.49" y="3257.03" width="83.17" height="103.96" fill="#fff" stroke="#000" stroke-miterlimit="10"/>
  <rect id="_162" data-name="162" x="2678.49" y="3153.07" width="83.17" height="103.96" fill="#fff" stroke="#000" stroke-miterlimit="10"/>
  <rect id="_161" data-name="161" x="2678.49" y="3049.11" width="83.17" height="103.96" fill="#fff" stroke="#000" stroke-miterlimit="10"/>
  <rect id="_160" data-name="160" x="2678.49" y="2945.15" width="83.17" height="103.96" fill="#fff" stroke="#000" stroke-miterlimit="10"/>
  <rect id="_159" data-name="159" x="2678.49" y="2841.18" width="83.17" height="103.96" fill="#fff" stroke="#000" stroke-miterlimit="10"/>
  <rect id="_158" data-name="158" x="2678.49" y="2736.49" width="83.17" height="104.7" fill="#fff" stroke="#000" stroke-miterlimit="10"/>
  <rect id="_164" data-name="164" x="2595.33" y="3257.03" width="83.17" height="103.96" fill="#fff" stroke="#000" stroke-miterlimit="10"/>
  <rect id="_165" data-name="165" x="2595.33" y="3153.07" width="83.17" height="103.96" fill="#fff" stroke="#000" stroke-miterlimit="10"/>
  <rect id="_166" data-name="166" x="2595.33" y="3049.11" width="83.17" height="103.96" fill="#fff" stroke="#000" stroke-miterlimit="10"/>
  <rect id="_167" data-name="167" x="2595.33" y="2945.15" width="83.17" height="103.96" fill="#fff" stroke="#000" stroke-miterlimit="10"/>
  <rect id="_168" data-name="168" x="2595.33" y="2841.18" width="83.17" height="103.96" fill="#fff" stroke="#000" stroke-miterlimit="10"/>
  <rect id="_169" data-name="169" x="2595.33" y="2736.49" width="83.17" height="104.7" fill="#fff" stroke="#000" stroke-miterlimit="10"/>
  <rect id="_175" data-name="175" x="2456.77" y="3257.39" width="83.17" height="103.96" fill="#fff" stroke="#000" stroke-miterlimit="10"/>
  <rect id="_174" data-name="174" x="2456.77" y="3153.43" width="83.17" height="103.96" fill="#fff" stroke="#000" stroke-miterlimit="10"/>
  <rect id="_173" data-name="173" x="2456.77" y="3049.47" width="83.17" height="103.96" fill="#fff" stroke="#000" stroke-miterlimit="10"/>
  <rect id="_172" data-name="172" x="2456.77" y="2945.51" width="83.17" height="103.96" fill="#fff" stroke="#000" stroke-miterlimit="10"/>
  <rect id="_171" data-name="171" x="2456.77" y="2841.55" width="83.17" height="103.96" fill="#fff" stroke="#000" stroke-miterlimit="10"/>
  <rect id="_170" data-name="170" x="2456.77" y="2736.86" width="83.17" height="104.7" fill="#fff" stroke="#000" stroke-miterlimit="10"/>
  <rect id="_90" data-name="90" x="3121.24" y="2575.78" width="83.17" height="103.96" fill="#fff" stroke="#000" stroke-miterlimit="10"/>
  <rect id="_89" data-name="89" x="3121.24" y="2471.82" width="83.17" height="103.96" fill="#fff" stroke="#000" stroke-miterlimit="10"/>
  <rect id="_88" data-name="88" x="3121.24" y="2367.86" width="83.17" height="103.96" fill="#fff" stroke="#000" stroke-miterlimit="10"/>
  <rect id="_87" data-name="87" x="3121.24" y="2263.9" width="83.17" height="103.96" fill="#fff" stroke="#000" stroke-miterlimit="10"/>
  <rect id="_86" data-name="86" x="3121.24" y="2159.94" width="83.17" height="103.96" fill="#fff" stroke="#000" stroke-miterlimit="10"/>
  <rect id="_85" data-name="85" x="3121.24" y="2055.98" width="83.17" height="103.96" fill="#fff" stroke="#000" stroke-miterlimit="10"/>
  <rect id="_79" data-name="79" x="3038.07" y="2575.78" width="83.17" height="103.96" fill="#fff" stroke="#000" stroke-miterlimit="10"/>
  <rect id="_80" data-name="80" x="3038.07" y="2471.82" width="83.17" height="103.96" fill="#fff" stroke="#000" stroke-miterlimit="10"/>
  <rect id="_81" data-name="81" x="3038.07" y="2367.86" width="83.17" height="103.96" fill="#fff" stroke="#000" stroke-miterlimit="10"/>
  <rect id="_99" data-name="99" x="3342.76" y="2575.78" width="83.17" height="103.96" fill="#fff" stroke="#000" stroke-miterlimit="10"/>
  <rect id="_98" data-name="98" x="3342.76" y="2471.82" width="83.17" height="103.96" fill="#fff" stroke="#000" stroke-miterlimit="10"/>
  <rect id="_97" data-name="97" x="3342.76" y="2367.86" width="83.17" height="103.96" fill="#fff" stroke="#000" stroke-miterlimit="10"/>
  <rect id="_91" data-name="91" x="3259.59" y="2575.78" width="83.17" height="103.96" fill="#fff" stroke="#000" stroke-miterlimit="10"/>
  <rect id="_92" data-name="92" x="3259.59" y="2471.82" width="83.17" height="103.96" fill="#fff" stroke="#000" stroke-miterlimit="10"/>
  <rect id="_93" data-name="93" x="3259.59" y="2367.86" width="83.17" height="103.96" fill="#fff" stroke="#000" stroke-miterlimit="10"/>
  <rect id="_115" data-name="115" x="3550.31" y="2943.83" width="83.17" height="103.96" fill="#fff" stroke="#000" stroke-miterlimit="10"/>
  <rect id="_114" data-name="114" x="3550.31" y="2839.87" width="83.17" height="103.96" fill="#fff" stroke="#000" stroke-miterlimit="10"/>
  <rect id="_113" data-name="113" x="3550.31" y="2735.91" width="83.17" height="103.96" fill="#fff" stroke="#000" stroke-miterlimit="10"/>
  <rect id="_148" data-name="148" x="2900.22" y="2943.83" width="83.17" height="103.96" fill="#fff" stroke="#000" stroke-miterlimit="10"/>
  <rect id="_152" data-name="152" x="2817.05" y="3257.39" width="83.17" height="103.96" fill="#fff" stroke="#000" stroke-miterlimit="10"/>
  <rect id="_147" data-name="147" x="2900.22" y="2839.87" width="83.17" height="103.96" fill="#fff" stroke="#000" stroke-miterlimit="10"/>
  <rect id="_146" data-name="146" x="2900.22" y="2735.91" width="83.17" height="103.96" fill="#fff" stroke="#000" stroke-miterlimit="10"/>
  <rect id="_156" data-name="156" x="2817.05" y="2839.87" width="83.17" height="103.96" fill="#fff" stroke="#000" stroke-miterlimit="10"/>
  <rect id="_157" data-name="157" x="2817.05" y="2735.91" width="83.17" height="103.96" fill="#fff" stroke="#000" stroke-miterlimit="10"/>
  <rect id="_119" data-name="119" x="3467.15" y="2943.83" width="83.17" height="103.96" fill="#fff" stroke="#000" stroke-miterlimit="10"/>
  <rect id="_120" data-name="120" x="3467.15" y="2839.87" width="83.17" height="103.96" fill="#fff" stroke="#000" stroke-miterlimit="10"/>
  <rect id="_126" data-name="126" x="3342.76" y="3153.07" width="83.17" height="103.96" fill="#fff" stroke="#000" stroke-miterlimit="10"/>
  <rect id="_125" data-name="125" x="3342.76" y="3049.11" width="83.17" height="103.96" fill="#fff" stroke="#000" stroke-miterlimit="10"/>
  <rect id="_121" data-name="121" x="3467.15" y="2735.91" width="83.17" height="103.96" fill="#fff" stroke="#000" stroke-miterlimit="10"/>
  <rect id="_140" data-name="140" x="3038.07" y="3257.03" width="83.17" height="103.96" fill="#fff" stroke="#000" stroke-miterlimit="10"/>
  <rect id="_141" data-name="141" x="3038.07" y="3153.07" width="83.17" height="103.96" fill="#fff" stroke="#000" stroke-miterlimit="10"/>
  <rect id="_142" data-name="142" x="3038.07" y="3049.11" width="83.17" height="103.96" fill="#fff" stroke="#000" stroke-miterlimit="10"/>
  <rect id="_82" data-name="82" x="3038.07" y="2263.9" width="83.17" height="103.96" fill="#fff" stroke="#000" stroke-miterlimit="10"/>
  <rect id="_83" data-name="83" x="3038.07" y="2159.94" width="83.17" height="103.96" fill="#fff" stroke="#000" stroke-miterlimit="10"/>
  <rect id="_84" data-name="84" x="3038.07" y="2055.98" width="83.17" height="103.96" fill="#fff" stroke="#000" stroke-miterlimit="10"/>
  <rect id="_29" data-name="29" x="2678.49" y="1896.2" width="83.17" height="103.96" fill="#fff" stroke="#000" stroke-miterlimit="10"/>
  <rect id="_30" data-name="30" x="2678.49" y="1792.24" width="83.17" height="103.96" fill="#fff" stroke="#000" stroke-miterlimit="10"/>
  <rect id="_31" data-name="31" x="2678.49" y="1688.28" width="83.17" height="103.96" fill="#fff" stroke="#000" stroke-miterlimit="10"/>
  <rect id="_32" data-name="32" x="2678.49" y="1584.32" width="83.17" height="103.96" fill="#fff" stroke="#000" stroke-miterlimit="10"/>
  <rect id="_33" data-name="33" x="2678.49" y="1480.36" width="83.17" height="103.96" fill="#fff" stroke="#000" stroke-miterlimit="10"/>
  <rect id="_34" data-name="34" x="2678.49" y="1376.4" width="83.17" height="103.96" fill="#fff" stroke="#000" stroke-miterlimit="10"/>
  <rect id="_42" data-name="42" x="2595.33" y="1896.2" width="83.17" height="103.96" fill="#fff" stroke="#000" stroke-miterlimit="10"/>
  <rect id="_41" data-name="41" x="2595.33" y="1792.24" width="83.17" height="103.96" fill="#fff" stroke="#000" stroke-miterlimit="10"/>
  <rect id="_40" data-name="40" x="2595.33" y="1688.28" width="83.17" height="103.96" fill="#fff" stroke="#000" stroke-miterlimit="10"/>
  <rect id="_39" data-name="39" x="2595.33" y="1584.32" width="83.17" height="103.96" fill="#fff" stroke="#000" stroke-miterlimit="10"/>
  <rect id="_66" data-name="66" x="2678.49" y="2576.05" width="83.17" height="103.96" fill="#fff" stroke="#000" stroke-miterlimit="10"/>
  <rect id="_65" data-name="65" x="2678.49" y="2472.09" width="83.17" height="103.96" fill="#fff" stroke="#000" stroke-miterlimit="10"/>
  <rect id="_64" data-name="64" x="2678.49" y="2368.13" width="83.17" height="103.96" fill="#fff" stroke="#000" stroke-miterlimit="10"/>
  <rect id="_63" data-name="63" x="2678.49" y="2264.16" width="83.17" height="103.96" fill="#fff" stroke="#000" stroke-miterlimit="10"/>
  <rect id="_57" data-name="57" x="2595.33" y="2576.05" width="83.17" height="103.96" fill="#fff" stroke="#000" stroke-miterlimit="10"/>
  <rect id="_58" data-name="58" x="2595.33" y="2472.09" width="83.17" height="103.96" fill="#fff" stroke="#000" stroke-miterlimit="10"/>
  <rect id="_59" data-name="59" x="2595.33" y="2368.13" width="83.17" height="103.96" fill="#fff" stroke="#000" stroke-miterlimit="10"/>
  <rect id="_60" data-name="60" x="2595.33" y="2264.16" width="83.17" height="103.96" fill="#fff" stroke="#000" stroke-miterlimit="10"/>
  <rect id="_38" data-name="38" x="2595.33" y="1480.36" width="83.17" height="103.96" fill="#fff" stroke="#000" stroke-miterlimit="10"/>
  <rect id="_37" data-name="37" x="2595.33" y="1376.4" width="83.17" height="103.96" fill="#fff" stroke="#000" stroke-miterlimit="10"/>
  <rect id="_35" data-name="35" x="2678.49" y="1272.44" width="83.17" height="103.96" fill="#fff" stroke="#000" stroke-miterlimit="10"/>
  <rect id="_36" data-name="36" x="2595.33" y="1272.44" width="83.17" height="103.96" fill="#fff" stroke="#000" stroke-miterlimit="10"/>
  <rect id="_43" data-name="43" x="2456.77" y="1896.98" width="83.17" height="103.96" fill="#fff" stroke="#000" stroke-miterlimit="10"/>
  <rect id="_44" data-name="44" x="2456.77" y="1793.02" width="83.17" height="103.96" fill="#fff" stroke="#000" stroke-miterlimit="10"/>
  <rect id="_45" data-name="45" x="2456.77" y="1689.06" width="83.17" height="103.96" fill="#fff" stroke="#000" stroke-miterlimit="10"/>
  <rect id="_46" data-name="46" x="2456.77" y="1585.1" width="83.17" height="103.96" fill="#fff" stroke="#000" stroke-miterlimit="10"/>
  <rect id="_47" data-name="47" x="2456.77" y="1481.14" width="83.17" height="103.96" fill="#fff" stroke="#000" stroke-miterlimit="10"/>
  <rect id="_48" data-name="48" x="2456.77" y="1377.18" width="83.17" height="103.96" fill="#fff" stroke="#000" stroke-miterlimit="10"/>
  <rect id="_56" data-name="56" x="2456.77" y="2576.05" width="83.17" height="103.96" fill="#fff" stroke="#000" stroke-miterlimit="10"/>
  <rect id="_55" data-name="55" x="2456.77" y="2472.09" width="83.17" height="103.96" fill="#fff" stroke="#000" stroke-miterlimit="10"/>
  <rect id="_54" data-name="54" x="2456.77" y="2368.13" width="83.17" height="103.96" fill="#fff" stroke="#000" stroke-miterlimit="10"/>
  <rect id="_53" data-name="53" x="2456.77" y="2264.16" width="83.17" height="103.96" fill="#fff" stroke="#000" stroke-miterlimit="10"/>
  <rect id="_52" data-name="52" x="2456.77" y="2160.2" width="83.17" height="103.96" fill="#fff" stroke="#000" stroke-miterlimit="10"/>
  <rect id="_51" data-name="51" x="2456.77" y="2056.24" width="83.17" height="103.96" fill="#fff" stroke="#000" stroke-miterlimit="10"/>
  <rect id="_49" data-name="49" x="2456.77" y="1273.22" width="83.17" height="103.96" fill="#fff" stroke="#000" stroke-miterlimit="10"/>
</svg>